<svg width="78" height="22" viewBox="0 0 78 22" fill="none" xmlns="http://www.w3.org/2000/svg">
<path d="M11.6431 21.182V8.01891L8.50595 16.7035H6.53309L3.55762 8.20047V21.182H0V0H3.20186L7.66506 11.166L11.9989 0H15.2978V21.182H11.6431Z" fill="#70747b"/>
<path d="M18.3503 21.182V0H27.7942V3.02601H21.9079V9.01749H26.9856V12.0132H21.9079V18.156H27.7942V21.182H18.3503Z" fill="#70747b"/>
<path d="M30.5493 21.182V0H34.1069V21.182H30.5493Z" fill="#70747b"/>
<path d="M48.7167 15.8865C48.7167 19.0336 46.4204 21.3333 43.0245 21.3333C39.5639 21.3333 37.3323 19.0336 37.3323 15.8865V0H40.8576V16.0681C40.8576 17.5508 41.7955 18.3376 43.0245 18.3376C44.1565 18.3376 45.1914 17.5508 45.1914 16.0681V0H48.7167V15.8865Z" fill="#70747b"/>
<path d="M62.9965 15.4326C62.9965 18.5494 61.4117 21.182 57.3689 21.182C52.0972 21.182 51.4504 17.7929 51.4504 10.6213C51.4504 3.38913 52.0972 0 57.3689 0C61.5734 0 62.9965 2.36028 62.9965 5.68889H59.5035C59.5035 3.99433 59.0507 2.90496 57.3689 2.90496C54.8139 2.90496 54.9433 6.14279 54.9433 10.591C54.9433 14.8879 54.8139 18.2165 57.3689 18.2165C58.9214 18.2165 59.5359 17.2482 59.5359 15.4326H62.9965Z" fill="#70747b"/>
<path d="M71.6088 0C75.5545 0 77.3333 2.17872 77.3333 5.38629V21.182H73.808V12.0738H69.4419V21.182H65.8842V5.38629C65.8842 2.29977 67.7277 0 71.6088 0ZM69.5066 9.19905H73.8727V5.26525C73.8727 3.78251 72.8701 3.05626 71.6735 3.05626C70.5092 3.05626 69.5066 3.78251 69.5066 5.26525V9.19905Z" fill="#70747b"/>
</svg>
